<svg width="82" height="62" xmlns="http://www.w3.org/2000/svg"><path d="M17.7022.008a2.087 2.087 0 00-.2223.0553c-.8267.1866-1.4102.9263-1.3893 1.7696v1.7696h-1.9451c-.9795.0484-1.7436.878-1.695 1.8526.0487.9747.8822 1.735 1.8617 1.6867h1.7784v1.7696a1.7783 1.7783 0 00.8822 1.5553 1.8028 1.8028 0 001.7922 0 1.7783 1.7783 0 00.8822-1.5553V7.1418h1.7783c.6391.0069 1.2365-.325 1.563-.878a1.7788 1.7788 0 000-1.7834c-.3265-.553-.9239-.8848-1.563-.8779h-1.7783V1.833c.0209-.5115-.1875-1.0023-.5557-1.348a1.7832 1.7832 0 00-1.3893-.477zm43.1245 0l-2.334.4424c-6.634 1.3134-12.0732 5.9586-14.449 12.1108-.3543.9194.1042 1.9425 1.0281 2.295.924.3526 1.952-.1037 2.3063-1.023 1.695-4.3826 5.3558-7.7076 9.8364-9.2353.5557 10.2376 8.9125 18.4705 19.3394 18.4705.382 0 .7363-.09 1.1114-.1106-.6877 3.0208-1.9728 5.8065-4.1124 7.908-.7085.6843-.7155 1.811-.0278 2.5161.6877.7051 1.82.712 2.5286.0277 3.251-3.1867 5.3975-7.5278 5.7796-12.332L82 18.7548l-2.334.4424c-1.0143.2005-2.0424.3318-3.1121.3318-8.857 0-16.005-7.113-16.005-15.9266 0-.394.0208-.8087.0555-1.2719L60.8267.008zM39.209 17.7595c-9.8017 0-17.7834 7.9425-17.7834 17.6962 0 .719.132 1.4033.2223 2.1014-6.0852.8019-10.8922 5.7858-10.8922 12.0556C10.7556 56.4354 16.3476 62 23.2039 62h37.345c8.8152 0 16.005-7.1545 16.005-15.9266 0-8.772-7.1898-15.9266-16.005-15.9266-1.556 0-2.9662.47-4.3903.8848-2.0076-7.583-8.711-13.2721-16.9497-13.2721zm-35.7334 3.484a2.087 2.087 0 00-.2223.0552c-.8266.1867-1.4102.9263-1.3893 1.7697h-.1667c-.9795.0483-1.7436.8779-1.695 1.8525.0486.9747.8822 1.735 1.8617 1.6867a1.7783 1.7783 0 00.8822 1.5553 1.8028 1.8028 0 001.7922 0 1.7783 1.7783 0 00.8823-1.5553c.639.007 1.2365-.3249 1.563-.8779a1.7788 1.7788 0 000-1.7834c-.3265-.553-.924-.8849-1.563-.878.0208-.5115-.1876-1.0023-.5558-1.3479a1.7832 1.7832 0 00-1.3893-.477zm35.7334.0552c7.141 0 13.011 5.2052 14.06 12.0003l.3334 2.2673 2.1117-.8848c1.4866-.629 3.1121-.9954 4.8349-.9954 6.898 0 12.4483 5.5231 12.4483 12.3873 0 6.8642-5.5504 12.3874-12.4483 12.3874h-37.345c-4.9321 0-8.8917-3.9402-8.8917-8.8481 0-4.908 3.9596-8.8481 8.8917-8.8481.007 0 .1042-.007.3334 0l2.334.1106-.5-2.2674c-.2363-1.03-.389-2.0737-.389-3.1521 0-7.8389 6.3491-14.157 14.2266-14.157z" fill="#000" fill-rule="nonzero"/></svg>