<?xml version="1.0" encoding="UTF-8"?>
<svg width="69px" height="67px" viewBox="0 0 69 67" version="1.1" xmlns="http://www.w3.org/2000/svg" xmlns:xlink="http://www.w3.org/1999/xlink">
    <title>open-source-icon</title>
    <g id="Page-1" stroke="none" stroke-width="1" fill="none" fill-rule="evenodd">
        <g id="iPhone-11-Copy-2" transform="translate(-310.000000, -1788.000000)" fill="#000000" fill-rule="nonzero">
            <g id="open-source-icon" transform="translate(310.000000, 1788.000000)">
                <path d="M34.5,0 C15.462891,0 0,15.4889992 0,34.5582512 C0,49.3311989 9.275391,61.9736033 22.3125,66.9096575 C23.0917965,67.1913824 23.947266,66.7922722 24.234375,66.0175288 L31.6875,46.3437417 C31.8398445,45.9622397 31.828125,45.5396524 31.6582035,45.1698881 C31.494141,44.7942549 31.1835945,44.5066612 30.796875,44.3716676 C26.8300785,42.869135 24,39.0717181 24,34.5582512 C24,28.7300682 28.681641,24.0405226 34.5,24.0405226 C40.318359,24.0405226 45,28.7300682 45,34.5582512 C45,39.0717181 42.1699215,42.869135 38.203125,44.3716676 C37.816407,44.5066612 37.505859,44.7942549 37.3417965,45.1698881 C37.171875,45.5396524 37.160157,45.9622397 37.3125,46.3437417 L44.765625,66.0175288 C45.052734,66.7922722 45.9082035,67.1913824 46.6875,66.9096575 C59.724609,61.9736033 69,49.3311989 69,34.5582512 C69,15.4889992 53.537109,0 34.5,0 Z M34.5,3.00506532 C51.9140625,3.00506532 66,17.1147861 66,34.5582512 C66,47.5117265 58.0957035,58.4755195 46.96875,63.3411425 L40.59375,46.4846042 C44.958984,44.2425445 48,39.7995073 48,34.5582512 C48,27.1101502 41.9355465,21.0354572 34.5,21.0354572 C27.0644535,21.0354572 21,27.1101502 21,34.5582512 C21,39.7995073 24.041016,44.2425445 28.40625,46.4846042 L22.03125,63.3411425 C10.9042965,58.4755195 3,47.5117265 3,34.5582512 C3,17.1147861 17.0859375,3.00506532 34.5,3.00506532 Z" id="Shape"></path>
            </g>
        </g>
    </g>
</svg>