<?xml version="1.0" encoding="UTF-8"?>
<svg width="62px" height="64px" viewBox="0 0 62 64" version="1.1" xmlns="http://www.w3.org/2000/svg" xmlns:xlink="http://www.w3.org/1999/xlink">
    <title>route-icon</title>
    <g id="Page-1" stroke="none" stroke-width="1" fill="none" fill-rule="evenodd">
        <g id="iPhone-11-Copy-2" transform="translate(-324.000000, -1227.000000)" fill="#000000" fill-rule="nonzero">
            <g id="route-icon" transform="translate(324.000000, 1227.000000)">
                <path d="M51.6295256,0 C46.5880543,0 42.5184329,4.08380952 42.5184329,9.14285714 C42.5184329,11.0933333 43.1260766,12.9223808 44.2801483,14.5071427 L50.1715133,22.552381 C50.535957,23.04 51.0828601,23.2833335 51.6295256,23.2833335 C52.2369318,23.2833335 52.7230943,22.9790476 53.087538,22.552381 L58.9789036,14.5071427 C60.1329753,12.9223808 60.7406184,11.0933333 60.7406184,9.14285714 C60.7406184,4.08380952 56.670997,0 51.6295256,0 Z M51.6295256,3.65714286 C54.6665566,3.65714286 57.0961813,6.0952381 57.0961813,9.14285714 C57.0961813,10.3009524 56.7322114,11.3976192 56.0640646,12.3119049 L51.6295256,18.3464283 L47.1949861,12.3119049 C46.5268393,11.3976192 46.16287,10.3009524 46.16287,9.14285714 C46.16287,6.0952381 48.5924947,3.65714286 51.6295256,3.65714286 Z M15.1851546,24.3809524 C6.80294926,24.3809524 0,31.207619 0,39.6190476 C0,42.8495238 0.97137551,45.9578569 2.85433468,48.5178569 C2.9150753,48.6397617 3.03679342,48.7007141 3.09753404,48.8226188 L13.7271423,63.2690469 C14.091586,63.6957135 14.5777484,64 15.1851546,64 C15.7925608,64 16.2787232,63.6957135 16.6431669,63.2690469 L27.2727752,48.8226188 L27.4542851,48.5785716 L27.5159745,48.5178569 C29.3989337,45.8969045 30.3703092,42.8495238 30.3703092,39.6190476 C30.3703092,31.207619 23.5673599,24.3809524 15.1851546,24.3809524 Z M48.3884439,24.8119046 C47.8041714,24.7863095 47.2104082,25.0440478 46.8307793,25.5392859 L45.73816,27.0023808 C45.1307539,27.7947618 45.2519982,28.952381 46.1023669,29.5619048 C46.40607,29.8057143 46.8305424,29.9273807 47.1949861,29.9273807 C47.7416517,29.9273807 48.2885541,29.6840478 48.6529978,29.1964288 L49.746804,27.7333333 C50.3542102,26.9409524 50.1722252,25.7833332 49.3825971,25.1738094 C49.0864866,24.9452379 48.7390078,24.8272622 48.3884439,24.8119046 Z M15.1851546,28.0380952 C21.5629195,28.0380952 26.7258721,33.2190476 26.7258721,39.6190476 C26.7258721,42.0571429 25.9972222,44.4340474 24.5394473,46.3845236 L24.5394473,46.4452382 L15.1851546,59.1238095 L6.01355872,46.6285714 C5.9528181,46.567619 5.89160249,46.5064283 5.83086187,46.3845236 C4.37308703,44.4340474 3.6444371,42.0571429 3.6444371,39.6190476 C3.6444371,33.2190476 8.80738967,28.0380952 15.1851546,28.0380952 Z M42.9217883,32.1261903 C42.3375157,32.1005952 41.7437525,32.3583336 41.3641236,32.8535717 L40.2715044,34.3166665 C39.6640982,35.1090475 39.8460832,36.2666667 40.6357112,36.8761905 C40.9394143,37.12 41.3638868,37.2416664 41.7283305,37.2416664 C42.274996,37.2416664 42.8218985,36.9983336 43.1863422,36.5107145 L44.2801483,35.047619 C44.8875545,34.2552381 44.7055695,33.0976189 43.9159415,32.4880951 C43.619831,32.2595237 43.2723521,32.1415479 42.9217883,32.1261903 Z M15.1851546,33.5238095 C11.8305429,33.5238095 9.11109276,36.2527406 9.11109276,39.6190476 C9.11109276,42.9853547 11.8305429,45.7142857 15.1851546,45.7142857 C18.5397663,45.7142857 21.2592164,42.9853547 21.2592164,39.6190476 C21.2592164,36.2527406 18.5397663,33.5238095 15.1851546,33.5238095 Z M40.9014514,39.3369045 C40.4383042,39.3140474 39.9668525,39.4671427 39.6024088,39.8023808 C38.8127808,40.4119046 38.7525145,41.5695238 39.481402,42.3619048 L40.6962143,43.7023811 C41.060658,44.0680954 41.5461086,44.3119049 42.0320336,44.3119049 C42.4572179,44.3119049 42.9431428,44.1297621 43.2468459,43.8250002 C43.9757333,43.154524 44.0371858,41.9957144 43.369039,41.2642859 L42.1542267,39.9238095 C41.8201533,39.5580952 41.3645986,39.3597617 40.9014514,39.3369045 Z M47.0360164,46.0416664 C46.5728692,46.0188093 46.1026038,46.1719046 45.73816,46.5071427 C45.0092726,47.1776189 44.9478201,48.3352381 45.6159669,49.0666667 L46.8307793,50.407143 C47.195223,50.7728573 47.6818598,51.0166668 48.1677848,51.0166668 C48.5929691,51.0166668 49.0788941,50.834524 49.3825971,50.5297621 C50.1114846,49.8592859 50.1717508,48.7004763 49.503604,47.9690478 L48.2887916,46.6285714 C47.9547182,46.2628571 47.4991636,46.0645236 47.0360164,46.0416664 Z M53.2310851,52.7464283 C52.7679379,52.7235712 52.2976724,52.8766665 51.9332287,53.211904 C51.2043413,53.8823802 51.1440751,55.04 51.8122219,55.7714286 L53.0270343,57.1119055 C53.391478,57.4776198 53.8769285,57.7214293 54.3628535,57.7214293 C54.7880378,57.7214293 55.2739628,57.5392853 55.5776658,57.2345234 C56.3065533,56.5640472 56.3668201,55.4052389 55.6986733,54.6738103 L54.4838603,53.3333333 C54.1497869,52.967619 53.6942323,52.7692855 53.2310851,52.7464283 Z M59.4273394,59.4511909 C58.9641922,59.4283337 58.4927417,59.5814278 58.128298,59.9166659 C57.5208919,60.4652373 57.3996475,61.3792853 57.7640912,62.1107139 L57.7640912,62.1714286 C57.7640912,63.207619 58.5537193,64 59.5863098,64 L60.193716,64 C60.9226034,64 61.5914608,63.5728579 61.8344233,62.9023817 C62.1381264,62.2319055 62.0166452,61.44 61.5307202,60.952381 L60.6801147,60.0380952 C60.3460413,59.672381 59.8904866,59.474048 59.4273394,59.4511909 Z M23.081435,60.3428571 C22.0488445,60.3428571 21.2592164,61.1352381 21.2592164,62.1714286 C21.2592164,63.207619 22.0488445,64 23.081435,64 L24.9036535,64 C25.9362441,64 26.7258721,63.207619 26.7258721,62.1714286 C26.7258721,61.1352381 25.9362441,60.3428571 24.9036535,60.3428571 L23.081435,60.3428571 Z M32.1925278,60.3428571 C31.1599372,60.3428571 30.3703092,61.1352381 30.3703092,62.1714286 C30.3703092,63.207619 31.1599372,64 32.1925278,64 L34.0147463,64 C35.0473368,64 35.8369649,63.207619 35.8369649,62.1714286 C35.8369649,61.1352381 35.0473368,60.3428571 34.0147463,60.3428571 L32.1925278,60.3428571 Z M41.3036205,60.3428571 C40.27103,60.3428571 39.481402,61.1352381 39.481402,62.1714286 C39.481402,63.207619 40.27103,64 41.3036205,64 L43.1258391,64 C44.1584296,64 44.9480576,63.207619 44.9480576,62.1714286 C44.9480576,61.1352381 44.1584296,60.3428571 43.1258391,60.3428571 L41.3036205,60.3428571 Z M50.4147133,60.3428571 C49.3821228,60.3428571 48.5924947,61.1352381 48.5924947,62.1714286 C48.5924947,63.207619 49.3821228,64 50.4147133,64 L52.2369318,64 C53.2695223,64 54.0591504,63.207619 54.0591504,62.1714286 C54.0591504,61.1352381 53.2695223,60.3428571 52.2369318,60.3428571 L50.4147133,60.3428571 Z" id="Shape"></path>
            </g>
        </g>
    </g>
</svg>