<svg width="62" height="64" xmlns="http://www.w3.org/2000/svg"><path d="M51.6295 0c-5.0414 0-9.111 4.0838-9.111 9.1429 0 1.9504.6076 3.7795 1.7616 5.3642l5.8914 8.0453c.3645.4876.9114.731 1.458.731.6074 0 1.0936-.3044 1.458-.731l5.8914-8.0453c1.154-1.5847 1.7617-3.4138 1.7617-5.3642C60.7406 4.0839 56.671 0 51.6296 0zm0 3.6571c3.037 0 5.4667 2.4381 5.4667 5.4858 0 1.158-.364 2.2547-1.0321 3.169l-4.4346 6.0345-4.4345-6.0345c-.6682-.9143-1.0321-2.011-1.0321-3.169 0-3.0477 2.4296-5.4858 5.4666-5.4858zM15.1852 24.381C6.8029 24.381 0 31.2076 0 39.619c0 3.2305.9714 6.3389 2.8543 8.8989.0608.1219.1825.1828.2432.3047L13.7271 63.269c.3645.4267.8506.731 1.458.731.6075 0 1.0936-.3043 1.458-.731l10.6297-14.4464.1815-.244.0617-.0607c1.883-2.621 2.8543-5.6684 2.8543-8.8989 0-8.4114-6.803-15.238-15.1851-15.238zm33.2032.4309c-.5842-.0256-1.178.2321-1.5576.7274l-1.0926 1.463c-.6074.7925-.4862 1.95.3642 2.5596.3037.2438.7281.3655 1.0926.3655.5467 0 1.0936-.2434 1.458-.731l1.0938-1.463c.6074-.7924.4254-1.95-.3642-2.5596a1.7445 1.7445 0 00-.9942-.3619zm-33.2032 3.2262c6.3777 0 11.5407 5.181 11.5407 11.581 0 2.438-.7287 4.815-2.1865 6.7654v.0607l-9.3542 12.6786-9.1716-12.4952c-.0608-.061-.122-.1222-.1827-.244C4.373 44.434 3.6444 42.057 3.6444 39.619c0-6.4 5.163-11.5809 11.5408-11.5809zm27.7366 4.088c-.5843-.0255-1.178.2322-1.5577.7275l-1.0926 1.463c-.6074.7924-.4254 1.95.3642 2.5596.3037.2438.7282.3655 1.0926.3655.5467 0 1.0936-.2434 1.458-.731l1.0938-1.463c.6075-.7925.4255-1.95-.3642-2.5596a1.7445 1.7445 0 00-.9941-.362zm-27.7366 1.3977c-3.3547 0-6.0741 2.729-6.0741 6.0952 0 3.3664 2.7194 6.0953 6.074 6.0953 3.3547 0 6.0741-2.729 6.0741-6.0953s-2.7194-6.0952-6.074-6.0952zm25.7163 5.8131c-.4632-.0229-.9346.1302-1.299.4655-.7897.6095-.85 1.7671-.1211 2.5595l1.2148 1.3405c.3645.3657.85.6095 1.3358.6095.4252 0 .9111-.1821 1.2148-.4869.729-.6705.7904-1.8293.1222-2.5607l-1.2148-1.3405c-.334-.3657-.7896-.564-1.2527-.5869zm6.1345 6.7048c-.4631-.0229-.9334.1302-1.2978.4654-.729.6705-.7904 1.8281-.1222 2.5596l1.2148 1.3404c.3644.3658.851.6096 1.337.6096.4252 0 .911-.1822 1.2148-.487.7289-.6704.7892-1.8292.121-2.5607l-1.2148-1.3404c-.334-.3657-.7896-.564-1.2528-.587zm6.195 6.7047c-.463-.0228-.9333.1303-1.2978.4655-.7289.6705-.7891 1.8281-.121 2.5595l1.2148 1.3405c.3645.3657.85.6095 1.3359.6095.4251 0 .911-.1821 1.2148-.4869.7289-.6705.7891-1.8293.121-2.5607l-1.2148-1.3405c-.3341-.3657-.7897-.564-1.2528-.5869zm6.1963 6.7048c-.4631-.0229-.9346.1302-1.299.4655-.6074.5485-.7287 1.4626-.3642 2.194v.0607c0 1.0362.7896 1.8286 1.8222 1.8286h.6074c.7289 0 1.3978-.4271 1.6407-1.0976.3037-.6705.1822-1.4624-.3037-1.95l-.8506-.9143c-.334-.3657-.7896-.564-1.2528-.587zm-36.3459.8917c-1.0326 0-1.8222.7923-1.8222 1.8285S22.0488 64 23.0814 64h1.8223c1.0325 0 1.8222-.7924 1.8222-1.8286s-.7897-1.8285-1.8222-1.8285h-1.8223zm9.1111 0c-1.0326 0-1.8222.7923-1.8222 1.8285S31.16 64 32.1925 64h1.8222c1.0326 0 1.8223-.7924 1.8223-1.8286s-.7897-1.8285-1.8223-1.8285h-1.8222zm9.1111 0c-1.0326 0-1.8222.7923-1.8222 1.8285S40.271 64 41.3036 64h1.8222c1.0326 0 1.8223-.7924 1.8223-1.8286s-.7897-1.8285-1.8223-1.8285h-1.8222zm9.1111 0c-1.0326 0-1.8222.7923-1.8222 1.8285S49.382 64 50.4147 64h1.8222c1.0326 0 1.8223-.7924 1.8223-1.8286s-.7897-1.8285-1.8223-1.8285h-1.8222z" fill="#000" fill-rule="nonzero"/></svg>