<svg width="61" height="62" xmlns="http://www.w3.org/2000/svg"><path d="M13.858 0c3.8074 0 6.9207 3.1036 6.9207 6.8889 0 3.7853-3.1133 6.8889-6.9208 6.8889-3.8159 0-6.9317-3.1036-6.9317-6.889C6.9262 3.1037 10.042 0 13.858 0zm0 2.7556c-2.3209 0-4.1613 1.837-4.1613 4.1333 0 2.2962 1.8404 4.1333 4.1612 4.1333 2.307 0 4.1503-1.8371 4.1503-4.1333 0-2.2962-1.8433-4.1333-4.1503-4.1333zm20.7732 6.8888c.7249 0 1.4076.1994 1.9995.5275.1242.0424.2417.1022.349.1776l9.602 6.8512c.1654.1195.3021.2738.4004.452.865.7537 1.5016 1.7803 1.5016 3.014 0 2.2664-1.877 4.1333-4.1557 4.1333-.682 0-1.2113-.3622-1.7722-.6512a1.3905 1.3905 0 01-.817-.2583L33.998 18.355l-3.758 1.184 5.909 9.5826c.06.0987.1072.2045.1407.3148.616.9726 1.0248 2.0969 1.0876 3.3207.032.0396.0618.081.0893.1238l4.5156 7.0746h9.9646c2.6616 0 4.8483 2.1749 4.8483 4.8222 0 2.6473-2.1867 4.8222-4.8483 4.8222H40.2642c-2.2445 0-4.352-1.0844-5.6492-2.9063l-4.0178-5.6375-6.5501 4.0176 2.1834 11.1675c.0188.0975.027.1968.0243.296.0298.2066.065.4088.065.6405C26.3197 59.825 24.133 62 21.4713 62c-2.0145 0-3.5525-1.3616-4.2775-3.1188a1.3766 1.3766 0 01-.487-.81l-2.8084-14.7035a1.3706 1.3706 0 01-.019-.366c-.0122-.0935-.027-.1385-.027-.2906 0-1.0027.426-1.8782 1.0254-2.5914a1.378 1.378 0 01.3544-.4951l6.6855-5.8933-2.335-4.588-1.9452 4.2705a1.3764 1.3764 0 01-.1542.2556c-.7075 1.2751-2.068 2.1528-3.6309 2.1528H4.1557C1.8771 35.8222 0 33.9552 0 31.689c0-2.2664 1.877-4.1333 4.1557-4.1333h7.3917l3.731-8.8426c.2002-1.703 1.2672-3.0977 2.6866-3.9745a1.3824 1.3824 0 01.4897-.4548l3.474-1.9214a1.39 1.39 0 01.3787-.1426l11.3093-2.4515a1.3927 1.3927 0 01.3246-.0296c.2234-.0413.4387-.0942.69-.0942zm0 2.7556c-.0933 0-.2055.0144-.3327.0484a1.3927 1.3927 0 01-.644.0189l.2625.0538-10.8196 2.3492-2.922 1.6146.1867-.3687a1.3822 1.3822 0 01-.6872.6486c-.978.4218-1.6667 1.3835-1.6667 2.524 0 .4762.132.9207.3734 1.3483.2257.3985.2379.8824.0325 1.2916l.3003-.5974 6.1579 12.104a1.3727 1.3727 0 01-.3193 1.6523l-7.2103 6.3614.1055-.3094a1.3773 1.3773 0 01-.3734.565c-.2803.255-.4518.6055-.4518 1.0065 0-.0393.0044.0166.027.1857a1.3714 1.3714 0 01-.138.8019l.1976-.3767 2.5053 13.113h-1.1417c.6675.0008 1.2396.4747 1.3609 1.1276.1783.9568 1.0069 1.6818 2.0373 1.6818 1.1699 0 2.0778-.903 2.0778-2.0666 0-.1221-.0143-.2587-.0432-.4037a1.371 1.371 0 01-.0163-.0995 1.371 1.371 0 01-.0054-.0377L21.144 44.6648c-.1105-.5634.1417-1.136.6331-1.437l10.081-6.1839-.1543.4575a1.38 1.38 0 01.6737-.7858c1.3405-.6952 2.2537-2.0487 2.2537-3.649 0-.8994-.2906-1.718-.7873-2.4057a1.373 1.373 0 01-.2624-.7723v.3418l-6.6287-10.7505a1.3714 1.3714 0 01-.1182-1.2014 1.3822 1.3822 0 01.8785-.833l6.1092-1.924a1.3916 1.3916 0 011.2283.1938l7.351 5.2528-.8279.8234c.509-.5055 1.3225-.5394 1.8723-.078.256.215.5458.331.882.331.7827 0 1.3852-.5993 1.3852-1.3778 0-.5045-.261-.9176-.6682-1.1652a1.3848 1.3848 0 01-.1975-.148L35.616 12.766l.2435.0457a1.3897 1.3897 0 01-.4979-.1964c-.2132-.137-.4568-.2153-.7305-.2153zm19.0986 7.4244c.7117-.0266 1.4336.214 1.9886.7266v-.0027l4.402 4.0633c1.1112 1.0234 1.1793 2.7898.1488 3.8939l-6.1552 6.5982c-1.0297 1.1031-2.8067 1.1687-3.915.1453l-4.4019-4.0633c-1.1094-1.0237-1.176-2.7905-.146-3.8939h-.0028l6.1552-6.5955c.5145-.5526 1.2146-.8453 1.9263-.872zm.1055 2.7448l-6.1551 6.5956v.0026l4.402 4.0607 6.1551-6.5955-4.402-4.0634zm-37.3692.4467l-2.7218 6.4502c-.2158.5118-.7191.8448-1.277.845H4.1556c-.7827 0-1.3852.5993-1.3852 1.3778 0 .7785.6025 1.3778 1.3852 1.3778h9.6968c.5642 0 1.0282-.327 1.2527-.7993a1.3797 1.3797 0 01.4383-.5247l-.2679.175 2.7029-5.931-1.5124-2.9708zM36.4304 36.398c-.5639.9025-1.3362 1.6728-2.232 2.2658-.1132.1883-.27.347-.4573.4628l-.7819.479 3.915 5.495c.7806 1.0963 2.0412 1.7437 3.39 1.7437H51.947c1.1699 0 2.0778-.903 2.0778-2.0666 0-1.1636-.908-2.0667-2.0778-2.0667H41.222a1.3872 1.3872 0 01-1.1688-.6404l-3.6228-5.6726z" fill="#000" fill-rule="nonzero"/></svg>