<?xml version="1.0" encoding="UTF-8"?>
<svg width="61px" height="62px" viewBox="0 0 61 62" version="1.1" xmlns="http://www.w3.org/2000/svg" xmlns:xlink="http://www.w3.org/1999/xlink">
    <title>running-icon</title>
    <g id="Page-1" stroke="none" stroke-width="1" fill="none" fill-rule="evenodd">
        <g id="iPhone-11-Copy-2" transform="translate(-316.000000, -1391.000000)" fill="#000000" fill-rule="nonzero">
            <g id="running-icon" transform="translate(346.500000, 1422.000000) scale(-1, 1) translate(-346.500000, -1422.000000) translate(316.000000, 1391.000000)">
                <path d="M47.1420926,0 C43.3345816,0 40.2212551,3.10357974 40.2212551,6.88888889 C40.2212551,10.674198 43.3345816,13.7777778 47.1420926,13.7777778 C50.9579761,13.7777778 54.0737517,10.674198 54.0737517,6.88888889 C54.0737517,3.10357974 50.9579761,0 47.1420926,0 Z M47.1420926,2.75555556 C49.4628651,2.75555556 51.3032524,4.59268692 51.3032524,6.88888889 C51.3032524,9.18509085 49.4628651,11.0222222 47.1420926,11.0222222 C44.8351117,11.0222222 42.9917544,9.18509085 42.9917544,6.88888889 C42.9917544,4.59268692 44.8351117,2.75555556 47.1420926,2.75555556 Z M26.3687585,9.64444444 C25.6439308,9.64444444 24.9612271,9.84382887 24.369346,10.171875 C24.2451303,10.2143219 24.1276146,10.274122 24.0203281,10.3494792 L14.4182748,17.2006944 C14.2529046,17.3201652 14.1161614,17.4745497 14.0178504,17.6527778 C13.1529698,18.406447 12.5162619,19.4330444 12.5162619,20.6666667 C12.5162619,22.9330698 14.3933168,24.8 16.6720109,24.8 C17.354033,24.8 17.8832926,24.4378415 18.4441566,24.1487851 C18.7371294,24.1507717 19.0231932,24.060328 19.2612378,23.8904517 L27.0018606,18.355122 L30.7598919,19.5391498 L24.8509363,29.1217017 C24.7909805,29.2203816 24.7437144,29.3261559 24.7102462,29.4365446 C24.0941564,30.4091069 23.6854163,31.5333888 23.6226091,32.7572054 C23.5905757,32.7967975 23.560769,32.8381218 23.5333256,32.8809891 L19.0177359,39.9555556 L9.05313778,39.9555556 C6.39145952,39.9555556 4.20476397,42.1304563 4.20476397,44.7777778 C4.20476397,47.4250992 6.39145952,49.6 9.05313778,49.6 L20.735771,49.6 C22.9803049,49.6 25.08776,48.5155608 26.3849923,46.69375 L30.4027565,41.056163 L36.9529317,45.0737851 L34.76954,56.2413188 C34.7507246,56.3388271 34.7425605,56.4380726 34.7451901,56.537326 C34.7153809,56.7438756 34.6802565,56.9460714 34.6802565,57.1777778 C34.6802565,59.8250992 36.866952,62 39.5286303,62 C41.543052,62 43.0810823,60.6383973 43.8061302,58.881163 C44.0592649,58.6766034 44.2317206,58.3897746 44.2931314,58.0711812 L47.101509,43.3677076 C47.1241762,43.2471001 47.1305455,43.1240217 47.1204481,43.0017368 C47.132666,42.9082408 47.1475034,42.8631999 47.1475034,42.7111111 C47.1475034,41.7083824 46.7214366,40.8328638 46.1220945,40.1197054 C46.0424792,39.9304771 45.9213903,39.7613158 45.7676645,39.6245665 L39.0822114,33.731337 L41.4171148,29.1432295 L43.3624168,33.4138019 C43.4043754,33.5043127 43.4560836,33.5900284 43.5166338,33.6694444 C44.2240919,34.9445392 45.5845844,35.8222222 47.1475034,35.8222222 L56.844251,35.8222222 C59.1229452,35.8222222 61,33.955292 61,31.6888889 C61,29.4224858 59.1229452,27.5555556 56.844251,27.5555556 L49.4526447,27.5555556 L45.7216701,18.7130205 C45.5214253,17.0099191 44.4543634,15.6153269 43.0350435,14.7384554 C42.9116754,14.5492975 42.7435224,14.3931399 42.5453356,14.2836812 L39.0713898,12.362326 C38.9528361,12.2965871 38.8252127,12.2485335 38.6926099,12.2197054 L27.3833458,9.76822924 C27.2766718,9.74568702 27.1676947,9.73575133 27.058678,9.73862851 C26.8353452,9.69730151 26.6200109,9.64444444 26.3687585,9.64444444 Z M26.3687585,12.4 C26.4620551,12.4 26.5742575,12.414406 26.7015426,12.4484372 C26.9117143,12.5049533 27.1323196,12.5114068 27.3454676,12.4672741 L27.0830279,12.5210943 L37.9025854,14.8703128 L40.8245964,16.4848962 L40.6379119,16.1162332 C40.7832474,16.4060085 41.0265521,16.6356153 41.3251259,16.7647573 C42.3030762,17.186586 42.9917544,18.1483204 42.9917544,19.2888889 C42.9917544,19.7650379 42.8598094,20.2095352 42.6183867,20.6370665 C42.3926953,21.0355775 42.3805313,21.5195031 42.5859192,21.9287332 L42.2856013,21.331337 L36.1277343,33.4353297 C35.8444915,33.9942767 35.9756149,34.6728824 36.4469914,35.087587 L43.6573239,41.4490446 L43.5518067,41.1395833 C43.6271388,41.3558719 43.7554585,41.5500877 43.9251744,41.7046872 C44.2054659,41.9596518 44.3770041,42.3101103 44.3770041,42.7111111 C44.3770041,42.6718169 44.3725699,42.7277271 44.3499488,42.8967887 C44.3137461,43.1718122 44.3618372,43.4513005 44.4879321,43.6986981 L44.290426,43.3219613 L41.7850718,56.4350701 L42.9268209,56.4350701 C42.2593245,56.4357514 41.6872201,56.9097447 41.5659211,57.562587 C41.3876118,58.5194399 40.5590482,59.2444444 39.5286303,59.2444444 C38.358708,59.2444444 37.4507558,58.3413896 37.4507558,57.1777778 C37.4507558,57.0556653 37.4650793,56.9191207 37.4940448,56.7741316 C37.500676,56.7411514 37.5060909,56.7079408 37.5102786,56.6745665 C37.5122565,56.6620339 37.5140602,56.6494747 37.5156894,56.6368925 L39.8560036,44.6647573 C39.9665019,44.1013637 39.7142674,43.5288559 39.2229015,43.2277778 L29.1419632,37.043924 L29.2961803,37.5013889 C29.1825187,37.1625125 28.9409763,36.8807859 28.6224946,36.7156257 C27.2819788,36.0203591 26.3687585,34.6669445 26.3687585,33.0666667 C26.3687585,32.1671707 26.6593562,31.3486191 27.1560776,30.6609372 C27.3198753,30.4357213 27.4113601,30.1664994 27.4185173,29.888628 L27.4185173,30.2303816 L34.0471544,19.4799481 C34.2702165,19.1188644 34.3138106,18.6757743 34.1653576,18.2785317 C34.0169046,17.8812892 33.6929204,17.5740884 33.2868906,17.4455724 L27.1777222,15.5215278 C26.760502,15.3894233 26.3050497,15.4612641 25.9493963,15.7152778 L18.5983737,20.9680556 L19.4262765,21.7914927 C18.9172131,21.2859631 18.1038297,21.2520605 17.5540257,21.7134554 C17.2979581,21.9285072 17.0081805,22.0444444 16.6720109,22.0444444 C15.8893033,22.0444444 15.2867612,21.4451524 15.2867612,20.6666667 C15.2867612,20.1621878 15.5478753,19.7491108 15.9550362,19.5014759 C16.0251757,19.4580957 16.0912743,19.4085639 16.1525423,19.3534722 L25.3839319,12.7659722 L25.1404313,12.8117186 C25.3176397,12.7790676 25.4867404,12.7123407 25.6382554,12.6152778 C25.8514897,12.4782495 26.0951274,12.4 26.3687585,12.4 Z M7.27016992,19.8243925 C6.55846217,19.7977601 5.83658516,20.0384689 5.28157921,20.5509554 L5.28157921,20.5482632 L0.879623711,24.6116316 C-0.231612207,25.6350036 -0.299712188,27.4014442 0.730817561,28.5054686 L6.88597966,35.1037332 C7.91565346,36.2068399 9.69265214,36.272418 10.8009336,35.2490446 L15.2028885,31.1856776 C16.3122657,30.1620356 16.3789198,28.3952229 15.3489894,27.2918406 L15.3516948,27.2918406 L9.19653328,20.6962668 C8.68200723,20.1437091 7.98187767,19.851025 7.27016992,19.8243925 Z M7.16465296,22.5691835 L13.3198148,29.1647573 L13.3198148,29.1674481 L8.91785984,33.2281257 L2.76269747,26.6325519 L7.16465296,22.5691835 Z M44.5339266,23.0158852 L47.255726,29.4661462 C47.4715121,29.9778542 47.9748495,30.3108952 48.5327531,30.3111111 L56.844251,30.3111111 C57.6269586,30.3111111 58.2295007,30.9104031 58.2295007,31.6888889 C58.2295007,32.4673747 57.6269586,33.0666667 56.844251,33.0666667 L47.1475034,33.0666667 C46.5832566,33.0666667 46.1193296,32.7397696 45.8948263,32.2674481 C45.7952577,32.0587594 45.6445382,31.8783158 45.456525,31.7427076 L45.7243755,31.917622 L43.0215151,25.9867186 L44.5339266,23.0158852 Z M24.5695575,36.3980906 C25.133494,37.300626 25.905815,38.0709471 26.801649,38.6638889 C26.9148446,38.852174 27.0716043,39.0108562 27.2588895,39.1267368 L28.0407978,39.6057295 L24.125844,45.1006944 C23.3452018,46.197017 22.0845747,46.8444444 20.735771,46.8444444 L9.05313778,46.8444444 C7.88321548,46.8444444 6.97526329,45.9413896 6.97526329,44.7777778 C6.97526329,43.6141659 7.88321548,42.7111111 9.05313778,42.7111111 L19.7780011,42.7111111 C20.2521203,42.710612 20.6930558,42.4689993 20.9468055,42.0706594 L24.5695575,36.3980906 Z" id="Shape"></path>
            </g>
        </g>
    </g>
</svg>