<svg width="46" height="46" xmlns="http://www.w3.org/2000/svg"><path d="M23 0C10.317 0 0 10.317 0 23s10.317 23 23 23 23-10.317 23-23S35.683 0 23 0zm11.237 18.524c.01.236.016.476.016.717C34.253 26.559 28.68 35 18.491 35c-3.128 0-6.041-.917-8.491-2.489.433.052.872.077 1.321.077 2.596 0 4.985-.884 6.879-2.37-2.424-.044-4.468-1.649-5.175-3.847.339.065.686.1 1.044.1.505 0 .995-.067 1.458-.195-2.532-.511-4.441-2.747-4.441-5.432v-.07c.747.415 1.6.665 2.509.694-1.488-.995-2.464-2.689-2.464-4.611 0-1.015.272-1.966.749-2.786 2.733 3.351 6.815 5.556 11.418 5.788a5.5303 5.5303 0 01-.145-1.262c0-3.059 2.48-5.539 5.54-5.539 1.593 0 3.032.672 4.042 1.749 1.261-.248 2.448-.709 3.518-1.343-.413 1.292-1.292 2.378-2.437 3.064 1.122-.136 2.188-.432 3.183-.873-.742 1.111-1.681 2.088-2.762 2.869z" fill="#000" fill-rule="nonzero"/></svg>
